Simulation
nRows=32
nColumns=15
endheader
time  TH_x TH_y TH_z SC_y  SC_z  SC_x  AC_y  AC_z  AC_x  GH_y  GH_z  GH_yy  EL_x  PS_y
0.0  0.000000  0.000000  0.000000  -21.481837363305974  5.049547332879065  0.3347068766571287  50.95191822595817  7.402011685593291  -0.23340035954743263  160.98994253594452  1.862267640216153  -117.50088047979017  20.8924063815367  120.000000
0.05362  0.000000  0.000000  0.000000  -20.696398433944168  5.017634864939044  -0.6713027683905698  50.968758277555764  7.320847158805447  0.3820249155250576  -18.685369056657425  1.2276769220568946  60.508541018449186  20.211714551543302  120.000000
0.10724  0.000000  0.000000  0.000000  -20.02817670967453  4.945864367122798  -1.6657212933510328  50.97340453084418  7.1422517856942  0.9787816899281607  -18.600292185271478  4.2267493831180785  58.64347484165975  19.533422617876226  120.000000
0.16086  0.000000  0.000000  0.000000  -19.5533595745066  4.862222279585715  -2.662492038696949  50.95460071411943  6.931736370531365  1.5443953430017172  -18.188731050492756  7.141376817434105  56.21184890612655  18.82507274030279  120.000000
0.21448  0.000000  0.000000  0.000000  -19.32621367438782  4.789717078531082  -3.642918262055812  50.90951284439805  6.766613331962221  2.077551002793233  -17.7056224624416  9.995915386996495  53.38524624434647  18.074567300418746  120.000000
0.2681  0.000000  0.000000  0.000000  -19.363480985226172  4.750106387314036  -4.568333307747663  50.843844293321055  6.730347664190989  2.5804468917515964  -17.31993129416944  12.839248967716667  50.312175538492625  17.280442349966293  120.000000
0.32172  0.000000  0.000000  0.000000  -19.65785087230517  4.7656178083300365  -5.399999417829896  50.76680825347381  6.884744053125823  3.059564519372176  -17.13531918631651  15.721813197650073  47.128403028889664  16.453659539043976  120.000000
0.37534  0.000000  0.000000  0.000000  -20.189572905459453  4.852666293933203  -6.108145499989683  50.687419827687606  7.255950697604174  3.5188469629197976  -17.20965387006819  18.68420494665937  43.960542010303165  15.612496895208146  120.000000
0.42896  0.000000  0.000000  0.000000  -20.934727384625127  5.02165365591998  -6.674048748417748  50.6091776122022  7.830424832504183  3.9601492385494987  -17.558133913029778  21.749782210488345  40.915323303177566  14.780609558156598  120.000000
0.48258  0.000000  0.000000  0.000000  -21.863914054192463  5.271946790592968  -7.085701376385681  50.53287704208389  8.564648676289586  4.383763722930907  -18.157712643337966  24.922832147038807  38.07519379785131  13.98125723519556  120.000000
0.5362  0.000000  0.000000  0.000000  -22.94306698861891  5.595921866273468  -7.3368738337029304  50.461351511000835  9.399249060046936  4.790543468280851  -18.941874911757044  28.188680024969038  35.48212535950038  13.233966603923417  120.000000
0.58982  0.000000  0.000000  0.000000  -24.135287653759715  5.980681901944237  -7.424998463328791  50.40270259961719  10.27130725032506  5.179906838134891  -19.81707437848479  31.51729615395026  33.14343781474787  12.551018477303826  120.000000
0.64344  0.000000  0.000000  0.000000  -25.40395989154977  6.412822366627828  -7.349195127805066  50.36866375184411  11.124388966800211  5.551469794388414  -20.675471820947728  34.86789463641303  31.032424970039752  11.937965836118062  120.000000
0.69706  0.000000  0.000000  0.000000  -26.715426266342163  6.880763341847577  -7.10800223660461  50.37328666355807  11.915973406606618  5.904224694977179  -21.41480069228616  38.19433282242202  29.097720812840564  11.391310066733187  120.000000
0.75068  0.000000  0.000000  0.000000  -28.042053415243263  7.3772321583501075  -6.700763213018716  50.42985741355956  12.620178276715539  6.237462582339563  -21.95086853571409  41.448630332343235  27.26961266193079  10.896738132057164  120.000000
0.8043  0.000000  0.000000  0.000000  -29.362704414920522  7.896105240157127  -6.127519356547376  50.54699223595677  13.228772082375716  6.553029543498285  -22.22798417701947  44.58717959166929  25.472899415269143  10.42861046985994  120.000000
0.85792  0.000000  0.000000  0.000000  -30.660015249874682  8.433234577983711  -5.390723845220178  50.72792574818641  13.746197592881241  6.8528210355575805  -22.222175302101057  47.575506580342186  23.6418541987587  9.957160887603855  120.000000
0.91154  0.000000  0.000000  0.000000  -31.918655909263155  8.982318813679907  -4.496434501670227  50.96591397911173  14.18218164071494  7.138491701003069  -21.945721388722443  50.391291279633776  21.739793255301397  9.459294376320761  120.000000
0.96516  0.000000  0.000000  0.000000  -33.12338338330866  9.535806366802161  -3.467864716852467  51.241369008111896  14.550342246263506  7.412014639912726  -21.44638677301514  53.0217826016128  19.772256596705066  8.930801632638097  120.000000
1.01878  0.000000  0.000000  0.000000  -34.256326295000996  10.084580704479524  -2.338887726823976  51.523909125148016  14.860086536604758  7.671097394538928  -20.79848541469651  55.45945911892919  17.787480543074864  8.390409621911434  120.000000
1.0724  0.000000  0.000000  0.000000  -35.29605015062915  10.617586280859479  -1.1487925497788234  51.77945979098421  15.111436421430897  7.904890674064802  -20.089470125864548  57.692054187163095  15.864541302690506  7.872708002564048  120.000000
1.12602  0.000000  0.000000  0.000000  -36.22193499619008  11.120052884387714  0.0546432927206409  51.97776252447717  15.30001003154651  8.102772868403928  -19.402918887494895  59.6992032664374  14.093163311012875  7.416211931507716  120.000000
1.17964  0.000000  0.000000  0.000000  -37.02276847139366  11.580086066247905  1.2209327332185642  52.10272597276138  15.420873507900897  8.256393565205743  -18.801729915348165  61.45842981271806  12.552404463326038  7.053479250448277  120.000000
1.23326  0.000000  0.000000  0.000000  -37.70112124615571  11.991651112839689  2.3047164096727677  52.1588735138519  15.467325916950434  8.357116718185388  -18.321130081512905  62.95450877270791  11.298913137096031  6.8064097387582585  120.000000
1.28688  0.000000  0.000000  0.000000  -38.27036638732013  12.34997607082752  3.2707079490099153  52.164335890907374  15.43187621947587  8.401273634440965  -17.971484347181427  64.18156722345857  10.363197622386508  6.686686921296452  120.000000
1.3405  0.000000  0.000000  0.000000  -38.74611548513611  12.653465083708301  4.0928313967082754  52.14265960556174  15.312048044148954  8.388684690839456  -17.74682390265161  65.14407536245947  9.748269900494225  6.693338146123857  120.000000
1.39412  0.000000  0.000000  0.000000  -39.14111444807569  12.902840979592453  4.760281980581663  52.11212750591307  15.117660081602322  8.32501646228321  -17.63184140160422  65.85888021255163  9.428230419075886  6.806722474935872  120.000000
1.44774  0.000000  0.000000  0.000000  -39.462751413905934  13.099600296157377  5.281346914645593  52.08158039709286  14.873798041485927  8.220774597098305  -17.60749717634869  66.35500990525598  9.3505461778328  6.983737921410159  120.000000
1.50136  0.000000  0.000000  0.000000  -39.71394817653934  13.245102563018335  5.680638171254655  52.05159151569603  14.616027823298603  8.087779217664508  -17.65273372990758  66.66998564567787  9.445429512231481  7.164788566527529  120.000000
1.55498  0.000000  0.000000  0.000000  -39.893888679564355  13.339560824313748  5.991177496147309  52.017528905752  14.379888235708124  7.936367565422885  -17.744291660059098  66.84146845117934  9.640991225661729  7.290402109179722  120.000000
1.6086  0.000000  0.000000  0.000000  -39.99951586954114  13.383572548610836  6.241749733636186  51.97498350167185  14.189149826802723  7.770844157931893  -17.856021255375502  66.89734646093791  9.877825496248455  7.321894793901654  120.000000
1.66222  0.000000  0.000000  0.000000  -40.02476622492743  13.377780001746352  6.449144472211851  51.9219746709031  14.048742124813122  7.590319436032588  -17.959136051092642  66.8454100222529  10.11757491736007  7.254978385013912  120.000000
